<?xml version="1.0" standalone="no"?><!DOCTYPE svg PUBLIC "-//W3C//DTD SVG 1.1//EN" "http://www.w3.org/Graphics/SVG/1.1/DTD/svg11.dtd"><svg t="1583747014381" class="icon" viewBox="0 0 1024 1024" version="1.1" xmlns="http://www.w3.org/2000/svg" p-id="31066" xmlns:xlink="http://www.w3.org/1999/xlink" width="200" height="200"><defs><style type="text/css"></style></defs><path d="M818.031487 66.875107 205.966467 66.875107c-46.02422 0-83.463923 37.439704-83.463923 83.463923L122.502543 873.66097c0 46.078455 37.438681 83.463923 83.463923 83.463923l612.06502 0c46.025243 0 83.463923-37.384445 83.463923-83.463923L901.49541 150.338007C901.49541 104.314811 864.05673 66.875107 818.031487 66.875107zM845.853136 873.66097c0 15.32401-12.497639 27.821649-27.821649 27.821649L205.966467 901.482619c-15.322987 0-27.821649-12.497639-27.821649-27.821649l0-83.463923 667.707294 0L845.852112 873.66097zM845.853136 734.582401l-667.707294 0L178.145841 150.338007c0-15.322987 12.497639-27.821649 27.821649-27.821649l612.06502 0c15.32401 0 27.821649 12.498662 27.821649 27.821649L845.854159 734.582401z" p-id="31067"></path><path d="M743.262596 234.725976c-0.272199 0-0.543376 0-0.86981 0-15.32401 0.48914-27.386744 13.313214-26.951839 28.635177 0.055259 0.86981 1.738597 86.451978-53.360302 143.126768-33.744545 34.667567-82.649372 52.218292-145.462976 52.218292-203.822129 0-214.09203-195.617259-214.418464-203.930599-0.651846-15.32401-12.986779-26.298969-28.853142-26.733874-15.322987 0.597611-27.331485 13.420661-26.789133 28.744671 0.10847 2.554172 12.063757 257.562077 270.060739 257.562077 78.682014 0 141.170207-23.36515 185.782264-69.49784 71.50966-74.008574 68.792782-178.88211 68.683289-183.282327C770.539846 246.517533 758.204913 234.725976 743.262596 234.725976z" p-id="31068"></path></svg>